<svg xmlns="http://www.w3.org/2000/svg" viewBox="0 0 49.53 54.34"><defs><style>.fb084ebd-4375-4c5b-81ef-6940540bcc44{fill:#4f69b0;}.a44e539d-837c-463e-bdf5-9137eca30a25{fill:#fab516;}</style></defs><title>Asset 2</title><g id="af1cfdbb-5603-4214-8529-b0f7bf19b07c" data-name="Layer 2"><g id="f08fb843-68a2-4d61-a0c7-cafd99e5ed99" data-name="Layer 1"><path class="fb084ebd-4375-4c5b-81ef-6940540bcc44" d="M.4,32.06c-.52,1.84.52,4.74,1,5.9.73,1.81,1.94,4,3.12,4.77A10.26,10.26,0,0,0,7.12,44L7,45.82l0,.07c.86,4.94,7.66,7,8.52,7.27a7.26,7.26,0,0,0,3.27.86,5.69,5.69,0,0,0,1.79-.29c3-1,4.43-4.38,4.48-4.52l.05-.11V3.1l.11-.1-.11-.1V2.66h-.31C23.74,1.88,20.9.15,18.16.27a5.23,5.23,0,0,0-4,2,4.14,4.14,0,0,0-1.11,2.5L11.34,5l-.06,0c-.14,0-3.23,1-3.42,3.45l-2,2.3A9.26,9.26,0,0,0,4.6,14a11.14,11.14,0,0,1-1.95,4.55C.54,21.16.08,22.71.83,28.59a3.38,3.38,0,0,0,.89,1.86A4.49,4.49,0,0,0,.4,32.06m1.36.32a5,5,0,0,1,1-1.1l.14.07A6.55,6.55,0,0,0,5.89,32a15.35,15.35,0,0,0,6.29-1.6l-.62-1.14c-3.32,1.5-6.22,1.86-8,1a2.31,2.31,0,0,1-1.38-1.78C1.49,22.7,2,21.51,3.78,19.29a12.18,12.18,0,0,0,2.19-5,8.31,8.31,0,0,1,1-2.79L8.34,10a11.34,11.34,0,0,0,4.31,3.29,6.44,6.44,0,0,0,2.29.35c.81,0,1.74-.08,2.88-.18l1.48-.13L19.18,12l-1.49.12c-2.23.2-3.46.31-4.52-.08-1.47-.53-3.92-2.64-3.92-3.37,0-1.54,2.05-2.32,2.42-2.45L13.6,6c.75.77,2.24,1.14,4.55,1.14V5.86c-2.83,0-3.47-.6-3.61-.85s-.15-.84.76-2a3.78,3.78,0,0,1,2.84-1.49c2.17-.14,4.56,1.25,5.58,2V48.86c-.23.52-1.43,2.94-3.61,3.67A5,5,0,0,1,16.16,52l-.07,0L16,52c-.07,0-6.79-1.89-7.6-6.21l.17-2.83-.65-.07a7.56,7.56,0,0,1-2.62-1.17c-1.52-1-4.23-6.93-3.56-9.3"/><path class="fb084ebd-4375-4c5b-81ef-6940540bcc44" d="M18.81,54.28a7.47,7.47,0,0,1-3.36-.87c-.9-.26-7.8-2.4-8.69-7.48v-.09l.1-1.68A10.75,10.75,0,0,1,4.38,43c-1.24-.79-2.48-3-3.23-4.89C.67,36.88-.39,33.91.15,32a4.07,4.07,0,0,1,1.21-1.57,3.55,3.55,0,0,1-.78-1.8c-.77-6-.29-7.56,1.87-10.25a11.18,11.18,0,0,0,1.91-4.45,9.17,9.17,0,0,1,1.3-3.33h0L7.61,8.34c.27-2.55,3.46-3.55,3.6-3.59l.1,0,1.5-.18A4.67,4.67,0,0,1,14,2.12,5.45,5.45,0,0,1,18.15,0c3-.14,6,1.87,6.75,2.39h.48v.38l0,0,.2.2-.24.2V49.15l-.06.15c-.06.15-1.48,3.62-4.64,4.68a5.9,5.9,0,0,1-1.87.3M7.26,45.8v0c.84,4.81,7.57,6.85,8.34,7.07l0,0a6.22,6.22,0,0,0,4.87.55c2.94-1,4.27-4.24,4.33-4.37l0-.06V2.93h-.14l-.06-.05C24.11,2.47,21.12.4,18.17.53a5,5,0,0,0-3.81,1.92,4,4,0,0,0-1,2.32V5l-1.92.23h-.05c-.12,0-3.06,1-3.24,3.22v.08l-2,2.37a8.94,8.94,0,0,0-1.21,3.13,11.43,11.43,0,0,1-2,4.65c-2,2.56-2.5,4.07-1.76,9.85a3.16,3.16,0,0,0,.81,1.72l.18.19-.2.18a4.36,4.36,0,0,0-1.24,1.5c-.49,1.76.52,4.59,1,5.72.72,1.78,1.89,3.93,3,4.65a10.29,10.29,0,0,0,2.54,1.21l.2.06ZM18.82,53a6,6,0,0,1-2.77-.75l-.05,0H16c-.07,0-6.94-1.92-7.79-6.41v0l.16-2.61-.41,0A7.79,7.79,0,0,1,5.18,41.9c-1.61-1-4.38-7.08-3.67-9.59v0a5.71,5.71,0,0,1,1.11-1.21L2.76,31l.18.1.11.05a6.31,6.31,0,0,0,2.84.59,15,15,0,0,0,5.93-1.46l-.37-.69a14.45,14.45,0,0,1-5.59,1.39,5.28,5.28,0,0,1-2.36-.48,2.58,2.58,0,0,1-1.53-2c-.74-5.84-.22-7.06,1.61-9.34a12.15,12.15,0,0,0,2.15-4.92,8.37,8.37,0,0,1,1.08-2.88v0L8.37,9.53l.18.27A11.08,11.08,0,0,0,12.73,13a6.3,6.3,0,0,0,2.21.34c.8,0,1.71-.08,2.86-.18L19,13,19,12.29l-1.23.1c-1.14.1-2,.18-2.77.18a5.36,5.36,0,0,1-1.87-.27C11.6,11.76,9,9.58,9,8.68,9,7,11.15,6.13,11.59,6h0l2.08-.25.09.09c.66.68,2.05,1,4.11,1.06V6.12c-2.51,0-3.33-.55-3.58-1s0-1.27.79-2.26a4,4,0,0,1,3-1.59h.32a10.7,10.7,0,0,1,5.42,2l.12.07V48.92l0,0c-.22.51-1.47,3.05-3.76,3.81a4.52,4.52,0,0,1-1.37.22M8.67,45.73c.82,4.14,7.35,6,7.41,6l.11,0,.09.05a4.81,4.81,0,0,0,3.75.5c2-.67,3.17-2.91,3.44-3.47V3.64a10.19,10.19,0,0,0-5-1.84h-.28a3.55,3.55,0,0,0-2.66,1.4c-.92,1.13-.8,1.56-.74,1.67s.54.72,3.39.72h.25V7.4h-.25c-2.3,0-3.81-.36-4.64-1.12l-1.78.21c-.33.11-2.22.85-2.22,2.19,0,.51,2.25,2.59,3.74,3.12a4.84,4.84,0,0,0,1.7.25c.71,0,1.6-.08,2.71-.18l1.5-.12.25,0,.17,1.79-.26,0-1.48.13c-1.16.1-2.08.18-2.9.18a6.81,6.81,0,0,1-2.38-.36,12,12,0,0,1-4.23-3.13L7.21,11.65a8.38,8.38,0,0,0-1,2.69A12.57,12.57,0,0,1,4,19.46c-1.72,2.15-2.22,3.31-1.5,8.94A2.1,2.1,0,0,0,3.72,30a4.91,4.91,0,0,0,2.14.43A14.17,14.17,0,0,0,11.45,29l.22-.1.87,1.61-.25.11a15.82,15.82,0,0,1-6.4,1.62,6.92,6.92,0,0,1-3.06-.63,5.52,5.52,0,0,0-.83.88c-.61,2.25,2,8.08,3.45,9A7.57,7.57,0,0,0,8,42.59l.89.1Z"/><polygon class="fb084ebd-4375-4c5b-81ef-6940540bcc44" points="14.11 12.52 12.95 12.25 13.56 9.49 14.72 9.77 14.11 12.52"/><polygon class="fb084ebd-4375-4c5b-81ef-6940540bcc44" points="21 37.42 20.23 35.77 23.87 34 24.64 35.66 21 37.42"/><polygon class="fb084ebd-4375-4c5b-81ef-6940540bcc44" points="23.88 48.03 17.89 47.05 15.89 47.97 15.21 46.42 17.66 45.29 24.15 46.35 23.88 48.03"/><polygon class="fb084ebd-4375-4c5b-81ef-6940540bcc44" points="21.27 9.61 19.96 8 24.1 4.51 25.4 6.13 21.27 9.61"/><path class="fb084ebd-4375-4c5b-81ef-6940540bcc44" d="M8.73,35.26a1.36,1.36,0,1,1,1.43-1.35,1.39,1.39,0,0,1-1.43,1.35m0-1.62c-.2,0-.36.12-.36.27s.16.27.36.27.37-.12.37-.27-.17-.27-.37-.27"/><path class="fb084ebd-4375-4c5b-81ef-6940540bcc44" d="M18.83,28.63a1.45,1.45,0,1,1,1.43-1.45,1.44,1.44,0,0,1-1.43,1.45m0-1.74a.3.3,0,1,0,0,.58.3.3,0,1,0,0-.58"/><path class="fb084ebd-4375-4c5b-81ef-6940540bcc44" d="M21.69,26.88a1.45,1.45,0,1,1,1.43-1.45,1.44,1.44,0,0,1-1.43,1.45m0-1.74a.3.3,0,1,0,.37.29.35.35,0,0,0-.37-.29"/><path class="fb084ebd-4375-4c5b-81ef-6940540bcc44" d="M20.43,31.48A1.45,1.45,0,1,1,21.86,30a1.44,1.44,0,0,1-1.43,1.45m0-1.74a.34.34,0,0,0-.36.29.34.34,0,0,0,.36.29A.34.34,0,0,0,20.8,30a.35.35,0,0,0-.37-.29"/><path class="fb084ebd-4375-4c5b-81ef-6940540bcc44" d="M20.66,17.84a1.5,1.5,0,1,1,1.43-1.5,1.46,1.46,0,0,1-1.43,1.5m0-1.8a.3.3,0,1,0,.36.3.34.34,0,0,0-.36-.3"/><path class="fb084ebd-4375-4c5b-81ef-6940540bcc44" d="M17.26,17.84a1.5,1.5,0,1,1,1.42-1.5,1.47,1.47,0,0,1-1.42,1.5m0-1.8a.31.31,0,1,0,.36.3.35.35,0,0,0-.36-.3"/><path class="fb084ebd-4375-4c5b-81ef-6940540bcc44" d="M13.85,17.84a1.5,1.5,0,1,1,1.42-1.5,1.46,1.46,0,0,1-1.42,1.5m0-1.8a.31.31,0,1,0,.36.3.34.34,0,0,0-.36-.3"/><path class="fb084ebd-4375-4c5b-81ef-6940540bcc44" d="M10.44,17.84a1.5,1.5,0,1,1,1.43-1.5,1.46,1.46,0,0,1-1.43,1.5m0-1.8a.31.31,0,1,0,.37.3.34.34,0,0,0-.37-.3"/><path class="fb084ebd-4375-4c5b-81ef-6940540bcc44" d="M13.61,48.34h0a1.44,1.44,0,0,1-1.25-.7,1.25,1.25,0,0,1-.12-1,1.38,1.38,0,0,1,.73-.84,1.49,1.49,0,0,1,.63-.14,1.43,1.43,0,0,1,1.25.7,1.25,1.25,0,0,1,.12,1,1.36,1.36,0,0,1-.72.84,1.57,1.57,0,0,1-.64.14m0-1.63a.37.37,0,0,0-.18,0,.26.26,0,0,0-.17.17.18.18,0,0,0,0,.16.39.39,0,0,0,.34.17.65.65,0,0,0,.19,0A.31.31,0,0,0,14,47a.18.18,0,0,0,0-.16.39.39,0,0,0-.34-.17"/><path class="fb084ebd-4375-4c5b-81ef-6940540bcc44" d="M12,45.59h0a1.43,1.43,0,0,1-1.25-.7,1.25,1.25,0,0,1-.12-1,1.38,1.38,0,0,1,.73-.84,1.49,1.49,0,0,1,.63-.14,1.43,1.43,0,0,1,1.25.7,1.27,1.27,0,0,1,.12,1,1.36,1.36,0,0,1-.73.83,1.49,1.49,0,0,1-.63.14M12,44a.45.45,0,0,0-.19,0,.29.29,0,0,0-.16.17.18.18,0,0,0,0,.16.39.39,0,0,0,.34.17.65.65,0,0,0,.19,0,.31.31,0,0,0,.16-.18.19.19,0,0,0,0-.16A.39.39,0,0,0,12,44"/><path class="fb084ebd-4375-4c5b-81ef-6940540bcc44" d="M10.45,42.85h0a1.42,1.42,0,0,1-1.25-.71,1.25,1.25,0,0,1-.12-1,1.45,1.45,0,0,1,1.36-1,1.43,1.43,0,0,1,1.25.71,1.24,1.24,0,0,1,.12,1,1.45,1.45,0,0,1-1.36,1m0-1.63a.43.43,0,0,0-.19,0,.29.29,0,0,0-.16.17.18.18,0,0,0,0,.16.37.37,0,0,0,.34.17.37.37,0,0,0,.18,0,.28.28,0,0,0,.17-.17.18.18,0,0,0,0-.16.37.37,0,0,0-.34-.17"/><path class="fb084ebd-4375-4c5b-81ef-6940540bcc44" d="M8.86,40.1h0a1.43,1.43,0,0,1-1.25-.71,1.28,1.28,0,0,1-.11-1,1.37,1.37,0,0,1,.72-.83,1.45,1.45,0,0,1,1.89.56,1.25,1.25,0,0,1,.12,1A1.36,1.36,0,0,1,9.5,40a1.4,1.4,0,0,1-.64.15m0-1.63a.43.43,0,0,0-.19,0,.29.29,0,0,0-.16.17.18.18,0,0,0,0,.16.37.37,0,0,0,.33.17.38.38,0,0,0,.19,0,.28.28,0,0,0,.17-.17.22.22,0,0,0,0-.16.37.37,0,0,0-.34-.17"/><polygon class="fb084ebd-4375-4c5b-81ef-6940540bcc44" points="9.07 34.8 9.39 34.65 9.99 35.72 16.41 32.72 17.17 34.06 10.66 37.1 11.14 37.96 18.53 34.51 19.3 35.89 11.96 39.32 12.41 40.12 17.33 37.82 18.06 39.12 13.16 41.4 13.62 42.21 21.02 38.76 21.76 40.08 14.34 43.54 14.82 44.39 22.2 40.94 22.97 42.29 15.58 45.74 16.17 46.78 15.85 46.93 15.12 45.64 22.51 42.19 22.03 41.34 14.64 44.79 13.88 43.44 21.3 39.97 20.84 39.16 13.45 42.62 12.7 41.3 17.6 39.01 17.15 38.22 12.24 40.52 11.5 39.22 18.84 35.78 18.35 34.91 10.97 38.36 10.2 37 16.71 33.96 16.24 33.12 9.82 36.13 9.07 34.8"/><polygon class="fb084ebd-4375-4c5b-81ef-6940540bcc44" points="9.86 36.92 10.84 38.66 18.22 35.21 18.5 35.71 11.17 39.14 12.11 40.81 17.02 38.52 17.26 38.93 12.37 41.22 13.32 42.91 20.71 39.45 20.96 39.89 13.54 43.36 14.52 45.09 21.9 41.63 22.17 42.11 14.78 45.56 15.72 47.23 16.5 46.86 15.92 45.82 23.3 42.37 22.33 40.64 14.95 44.09 14.68 43.62 22.09 40.15 21.14 38.46 13.75 41.92 13.5 41.48 18.4 39.19 17.46 37.52 12.54 39.82 12.3 39.4 19.64 35.97 18.66 34.21 11.27 37.66 11 37.18 17.5 34.14 16.54 32.43 10.12 35.43 9.52 34.36 8.73 34.72 9.69 36.42 16.11 33.42 16.37 33.88 9.86 36.92"/><polygon class="fb084ebd-4375-4c5b-81ef-6940540bcc44" points="2.03 26.5 1.32 25.36 7.48 21.33 8.2 22.48 2.03 26.5"/><polygon class="fb084ebd-4375-4c5b-81ef-6940540bcc44" points="8.97 27.63 5.83 23.6 7.43 22.3 9.82 25.37 15.98 24.36 24.03 19.62 25.05 21.44 16.68 26.36 8.97 27.63"/><polygon class="fb084ebd-4375-4c5b-81ef-6940540bcc44" points="6.44 28.11 3.67 24.56 5.07 23.42 7.84 26.97 6.44 28.11"/><polygon class="fb084ebd-4375-4c5b-81ef-6940540bcc44" points="4.26 29.31 1.49 25.76 3 24.54 5.76 28.09 4.26 29.31"/><path class="fb084ebd-4375-4c5b-81ef-6940540bcc44" d="M8.73,22.63a1.51,1.51,0,0,1,0-3,1.51,1.51,0,0,1,0,3m0-1.81a.31.31,0,1,0,0,.61.31.31,0,1,0,0-.61"/><path class="fb084ebd-4375-4c5b-81ef-6940540bcc44" d="M14.17,10.53A1.51,1.51,0,1,1,15.6,9a1.47,1.47,0,0,1-1.43,1.51m0-1.81a.31.31,0,1,0,0,.61.31.31,0,1,0,0-.61"/><path class="fb084ebd-4375-4c5b-81ef-6940540bcc44" d="M13,30.81a1.5,1.5,0,1,1,1.42-1.5A1.47,1.47,0,0,1,13,30.81M13,29a.35.35,0,0,0-.37.3.34.34,0,0,0,.37.3.34.34,0,0,0,.36-.3A.34.34,0,0,0,13,29"/><path class="a44e539d-837c-463e-bdf5-9137eca30a25" d="M42.47,44.52a1.24,1.24,0,0,0-1.6.72c-1,2.66-4.23,4.64-5.89,5.51a3.86,3.86,0,0,1-2.47-2.13,1,1,0,0,0-1.35-.49,1,1,0,0,0-.51,1.3,6,6,0,0,0,2,2.38,3.15,3.15,0,0,1-1.95,0c-1.72-.6-2.74-2.66-3-3.2v-.75a21.71,21.71,0,0,1,5.21-.92,8.6,8.6,0,0,1,1.72.88.93.93,0,0,0,1.26-.27.86.86,0,0,0-.27-1.22,8.84,8.84,0,0,0-2.44-1.14A19.64,19.64,0,0,0,27.7,46v-2.5a8.92,8.92,0,0,0,2.56.43,3.87,3.87,0,0,0,2.14-.55,2.83,2.83,0,0,0,1.22-2.53c0-1.26,0-2.42.35-2.73s1.87-.34,3.78-.33h0a.89.89,0,1,0,0-1.77c-2.69,0-4.17,0-5.08.85s-.89,2-.89,4c0,.79-.32,1-.42,1.07-.78.51-2.62.09-3.39-.2a.87.87,0,0,0-.28-.05V36.19l.58.29h0l1.69.87a1,1,0,0,0,.43.1.91.91,0,0,0,.81-.47.86.86,0,0,0-.38-1.19l-.74-.38,1-1.31A.86.86,0,0,0,31,32.86a.94.94,0,0,0-1.29.16l-1.22,1.54-.75-.38v-4l.05,0a4.28,4.28,0,0,0,2.52.73,7.43,7.43,0,0,0,1.63-.19.9.9,0,0,0,.68-1.07A.92.92,0,0,0,31.47,29a3.26,3.26,0,0,1-2.62-.24,2.59,2.59,0,0,1-1-1.7.83.83,0,0,0-.2-.48v0a.42.42,0,0,0,.12-.08l.88-.7A12.57,12.57,0,0,0,31.31,28a14.4,14.4,0,0,0,3.78.51h0a.9.9,0,0,0,.92-.85.89.89,0,0,0-.89-.91,14.43,14.43,0,0,1-3.08-.36,11.92,11.92,0,0,1-2-1.71l.67-.54a.88.88,0,0,0,.11-1.25,1,1,0,0,0-1.29-.11L27.7,24.26V19.38c1.11,0,3.55.21,4.09,1.27,1.85,3.58,3.2,5.61,5.06,6.05a3.2,3.2,0,0,0,.75.09,4.89,4.89,0,0,0,2.81-1.08c1.82-1.27,2.71-2.64,2.71-4.2a7.08,7.08,0,0,0-1.19-3.44l-.28-.51a1,1,0,0,0-1.37-.42,1,1,0,0,0-.44,1.32c.09.18.19.36.29.54,1,1.87,1.8,3.22-.92,5.12-1.18.83-1.7.7-1.88.66-.86-.2-1.8-1.5-2.9-3.48.71-.33,1.79-.79,3.11-1.26a1,1,0,0,0,.62-1.26,1,1,0,0,0-1.31-.59c-1.44.51-2.61,1-3.36,1.36-1.34-2.14-5-2.16-5.79-2.14V8.48l1.8,1.6a1.33,1.33,0,0,0,.9.34,1.36,1.36,0,0,0,1-.41,1.26,1.26,0,0,0-.07-1.82L27.7,5V3a8.15,8.15,0,0,1,4.68-1A3.23,3.23,0,0,1,34.63,3.6c.7,1.18.57,1.61.48,1.74s-.58.64-3.19.36a.9.9,0,0,0-1,.78.88.88,0,0,0,.8,1c2.6.29,4.22-.08,4.94-1.14.91-1.34-.1-3-.43-3.59A5,5,0,0,0,32.57.21c-3.2-.5-6.71,1.69-7.09,2a.85.85,0,0,0-.26,1V49l.07.2c.06.15,1.44,3.7,4.53,4.8a5.7,5.7,0,0,0,1.87.32A7,7,0,0,0,35,53.41c.72-.31,6.51-2.94,8.17-7.35a1.19,1.19,0,0,0-.74-1.54"/><path class="a44e539d-837c-463e-bdf5-9137eca30a25" d="M43.49,14.31l.09.34-1-.83a.93.93,0,0,0-1.29.11.86.86,0,0,0,.12,1.24l3.15,2.54a.82.82,0,0,0,.2.12,13.17,13.17,0,0,0,1.16,1.81,8.13,8.13,0,0,1,1.28,2.09,11.83,11.83,0,0,1-1.84,2.59,5,5,0,0,1-1,.18,3.65,3.65,0,0,0-2.14.66c-.63.6-.75,2.08-.73,3.21a.9.9,0,0,0,.92.87h0a.9.9,0,0,0,.91-.89,6.44,6.44,0,0,1,.2-1.92,5.39,5.39,0,0,1,1-.17,4.26,4.26,0,0,0,1.86-.48,5.65,5.65,0,0,0,1.23-1.34,34.68,34.68,0,0,1-.31,4,2.06,2.06,0,0,1-1.15,1.57c-1.54.81-4.15.44-7.17-1a.94.94,0,0,0-1.23.4.88.88,0,0,0,.42,1.19c.48.23,1,.43,1.39.61A4.62,4.62,0,0,1,37,32.56a3.77,3.77,0,0,1-2.82-1.05,1.06,1.06,0,0,0-1.45.1,1,1,0,0,0,.1,1.39,5.94,5.94,0,0,0,3.85,1.54,5.25,5.25,0,0,0,.56,0,7.12,7.12,0,0,0,4.4-2.58,10.93,10.93,0,0,0,2.47.32A6.12,6.12,0,0,0,47,31.61a3.81,3.81,0,0,0,2.09-2.92c.71-5.84.24-7.48-1.74-10.1a11.09,11.09,0,0,1-2.09-4.71c-.2-.79-.43-1.67-.79-2.74a.91.91,0,0,0-1.15-.57.87.87,0,0,0-.59,1.11c.33,1,.56,1.87.75,2.63"/><path class="a44e539d-837c-463e-bdf5-9137eca30a25" d="M48.8,31.39a.92.92,0,0,0-1.08.68s-.47,2.18-1.14,4.44c-1.24,4.22-2,4.82-2.07,4.87a5,5,0,0,1-2.79.86A.88.88,0,1,0,41.58,44h.21a6.93,6.93,0,0,0,3.77-1.18c.62-.41,1.49-1.45,2.78-5.83.69-2.33,1.15-4.47,1.17-4.56a.88.88,0,0,0-.71-1"/><path class="a44e539d-837c-463e-bdf5-9137eca30a25" d="M38.81,7.37a2.36,2.36,0,0,1,1.45.47A1.55,1.55,0,0,1,40.73,9c0,.45-1.22,1.67-2.38,2.46h0L35.71,9.35a.93.93,0,0,0-1.29.11.85.85,0,0,0,.11,1.24l2,1.59a16.13,16.13,0,0,1-3.33-.12L31.77,12a.92.92,0,0,0-1,.81.9.9,0,0,0,.84,1l1.37.12c1.08.1,2,.18,2.72.18a6,6,0,0,0,2.23-.36c1.4-.54,4.68-3,4.63-4.76a3.3,3.3,0,0,0-1.05-2.45,4.17,4.17,0,0,0-2.79-.94.9.9,0,0,0-.87.92.91.91,0,0,0,1,.85"/><path class="a44e539d-837c-463e-bdf5-9137eca30a25" d="M41.69,36.7h0a1,1,0,0,0-1,1,5.42,5.42,0,0,1-.45,2A4,4,0,0,1,37,42.15a1,1,0,0,0-.83,1.14,1,1,0,0,0,1,.82l.18,0a6.3,6.3,0,0,0,5.34-6.42,1,1,0,0,0-1-1"/></g></g></svg>