<svg xmlns="http://www.w3.org/2000/svg" viewBox="0 0 45.15 54.27"><defs><style>.a3cab74e-4fd6-4a39-8b02-a325a7dd9eac{fill:#0093c8;}.b73f16c1-6b1d-4c81-94ec-b0832fb6dd39{fill:#fff;}</style></defs><title>Asset 1</title><g id="a61e5acc-8111-43d9-8164-a4dcbd139c32" data-name="Layer 2"><g id="a7628c95-43a7-4789-977a-f504d2adeaf9" data-name="Layer 1"><path class="a3cab74e-4fd6-4a39-8b02-a325a7dd9eac" d="M19.55,3.39l3,12.49,2.57-12.5h8.31l2,6.53a9.77,9.77,0,0,1,8.32-4.84,8.7,8.7,0,0,1,1.36.12V0H0V18.12c0,1.08.06,2.13.16,3.16a34.92,34.92,0,0,0,.87,5,37,37,0,0,0,2,5.79L11.41,3.39Z"/><path class="a3cab74e-4fd6-4a39-8b02-a325a7dd9eac" d="M19.92,42.45a1.35,1.35,0,0,0-.63,1,1,1,0,0,0,1.08,1,1,1,0,0,0,1-.9C21.41,43,20.63,42.79,19.92,42.45Z"/><path class="a3cab74e-4fd6-4a39-8b02-a325a7dd9eac" d="M20.89,42.2a1.5,1.5,0,0,0,.46-1c0-.49-.38-.79-.93-.79s-.9.32-.9.73C19.52,41.69,20.22,41.91,20.89,42.2Z"/><path class="a3cab74e-4fd6-4a39-8b02-a325a7dd9eac" d="M31.31,32.44H37L29.52,6.82,22.57,30.07l-7-23.25L8,32.45h5.83v4.78H5.76l0,0a58.7,58.7,0,0,0,16.73,17l.05,0,.06,0a58.82,58.82,0,0,0,16.73-17l0,0H31.31ZM17.91,45.05h-3v-.64h1.16V41c0-.16,0-.32,0-.32h0a1.19,1.19,0,0,1-.26.3l-.49.48L14.86,41l1.25-1.21h.66v4.6h1.14Zm2.46.09a1.66,1.66,0,0,1-1.83-1.6,1.82,1.82,0,0,1,.84-1.4,1.26,1.26,0,0,1-.59-1c0-.7.53-1.37,1.64-1.37s1.65.54,1.65,1.4a2.25,2.25,0,0,1-.63,1.37,1.25,1.25,0,0,1,.71,1.11A1.64,1.64,0,0,1,20.37,45.14Zm-3.18-7.91V32.44H28v4.79Zm8.87,7.82H23v-.64H24.2V41c0-.16,0-.32,0-.32h0a1.19,1.19,0,0,1-.26.3l-.49.48L23,41l1.25-1.21h.66v4.6h1.14Zm3.64,0h-3v-.64h1.16V41c0-.16,0-.32,0-.32h0a1.25,1.25,0,0,1-.25.3l-.49.48L26.64,41l1.26-1.21h.65v4.6H29.7Z"/><path class="a3cab74e-4fd6-4a39-8b02-a325a7dd9eac" d="M45.14,10.15h0a4.78,4.78,0,0,0-1.36-.22,5.58,5.58,0,0,0-5.38,5.76,5.59,5.59,0,0,0,5.38,5.76,4.83,4.83,0,0,0,1.2-.17h0c.1-1,.17-2.08.17-3.16v-8Z"/><path class="a3cab74e-4fd6-4a39-8b02-a325a7dd9eac" d="M39.43,25.23l2.3,7.7a37.59,37.59,0,0,0,2.38-6.64l-.33,0A9.46,9.46,0,0,1,39.43,25.23Z"/><path class="b73f16c1-6b1d-4c81-94ec-b0832fb6dd39" d="M16.77,39.81h-.66L14.86,41l.44.46.49-.48a1.19,1.19,0,0,0,.26-.3h0s0,.16,0,.32v3.39H14.89v.64h3v-.64H16.77Z"/><path class="b73f16c1-6b1d-4c81-94ec-b0832fb6dd39" d="M21.45,42.49a2.25,2.25,0,0,0,.63-1.37c0-.86-.68-1.4-1.65-1.4s-1.64.67-1.64,1.37a1.26,1.26,0,0,0,.59,1,1.82,1.82,0,0,0-.84,1.4,1.66,1.66,0,0,0,1.83,1.6,1.64,1.64,0,0,0,1.79-1.54A1.25,1.25,0,0,0,21.45,42.49Zm-1-2.11c.55,0,.93.3.93.79a1.5,1.5,0,0,1-.46,1c-.67-.29-1.37-.51-1.37-1.09C19.52,40.7,19.84,40.38,20.42,40.38Zm-.05,4.1a1,1,0,0,1-1.08-1,1.35,1.35,0,0,1,.63-1c.71.34,1.49.57,1.49,1.13A1,1,0,0,1,20.37,44.48Z"/><path class="b73f16c1-6b1d-4c81-94ec-b0832fb6dd39" d="M24.92,39.81h-.66L23,41l.44.46.49-.48a1.19,1.19,0,0,0,.26-.3h0s0,.16,0,.32v3.39H23v.64h3v-.64H24.92Z"/><path class="b73f16c1-6b1d-4c81-94ec-b0832fb6dd39" d="M28.55,39.81H27.9L26.64,41l.45.46.49-.48a1.25,1.25,0,0,0,.25-.3h0s0,.16,0,.32v3.39H26.68v.64h3v-.64H28.55Z"/><rect class="b73f16c1-6b1d-4c81-94ec-b0832fb6dd39" x="17.19" y="32.44" width="10.77" height="4.79"/><path class="b73f16c1-6b1d-4c81-94ec-b0832fb6dd39" d="M43.78,5.07a9.77,9.77,0,0,0-8.32,4.84l-2-6.53H25.15l-2.57,12.5-3-12.49H11.41L3.05,32.08c.12.29.24.57.37.85a42.48,42.48,0,0,0,2.29,4.22l0,.08h8.08V32.45H8l7.6-25.63,7,23.25,7-23.25L37,32.45H31.31v4.79h8.08a41,41,0,0,0,2.33-4.3h0l-2.3-7.7a9.46,9.46,0,0,0,4.35,1.08l.33,0h0a32.35,32.35,0,0,0,.87-5,4.83,4.83,0,0,1-1.2.17,5.59,5.59,0,0,1-5.38-5.76,5.58,5.58,0,0,1,5.38-5.76,4.78,4.78,0,0,1,1.36.22v-5h0A8.7,8.7,0,0,0,43.78,5.07Z"/></g></g></svg>